Coordinates
version=1
nRows=6
nColumns=63
inDegrees=yes

Units are S.I. units (second, meters, Newtons, ...)
If the header above contains a line with 'inDegrees', this indicates whether rotational values are in degrees (yes) or radians (no).

endheader
time	pelvis_tilt	pelvis_list	pelvis_rotation	pelvis_tx	pelvis_ty	pelvis_tz	hip_flexion_r	hip_adduction_r	hip_rotation_r	knee_angle_r	knee_angle_r_beta	ankle_angle_r	subtalar_angle_r	mtp_angle_r	hip_flexion_l	hip_adduction_l	hip_rotation_l	knee_angle_l	knee_angle_l_beta	ankle_angle_l	subtalar_angle_l	mtp_angle_l	L5_S1_Flex_Ext	L5_S1_Lat_Bending	L5_S1_axial_rotation	L4_L5_Flex_Ext	L4_L5_Lat_Bending	L4_L5_axial_rotation	L3_L4_Flex_Ext	L3_L4_Lat_Bending	L3_L4_axial_rotation	L2_L3_Flex_Ext	L2_L3_Lat_Bending	L2_L3_axial_rotation	L1_L2_Flex_Ext	L1_L2_Lat_Bending	L1_L2_axial_rotation	L1_T12_Flex_Ext	L1_T12_Lat_Bending	L1_T12_axial_rotation	Abs_r3	Abs_r2	Abs_r1	Abs_t1	Abs_t2	neck_flexion	neck_bending	neck_rotation	arm_flex_r	arm_add_r	arm_rot_r	elbow_flex_r	pro_sup_r	wrist_flex_r	wrist_dev_r	arm_flex_l	arm_add_l	arm_rot_l	elbow_flex_l	pro_sup_l	wrist_flex_l	wrist_dev_l
      0.00000000	      0.70688930	     -5.36096745	     85.66828627	      0.18672225	      0.86328168	      0.66177298	      4.09047899	     -0.42701627	      0.71877424	      7.69903157	      0.13437345	     35.28624596	     12.06590719	      0.00000000	      7.02803293	      0.57495182	     11.96108489	     14.26935455	      0.24904722	     31.47019721	    -16.74273132	      0.00000000	      0.14545524	      0.40365077	      0.66576830	      0.27012493	      0.53685553	      0.70737882	      0.23896842	      0.98143649	      0.70737882	      0.16624080	      0.98143649	      0.58254726	      0.13506974	      0.82312465	      0.54093674	      0.08311313	      0.62525505	      0.49932622	      1.03897225	      4.56617826	      3.70280355	      0.00000000	      0.00000000	     26.35399630	     -1.97595863	     -2.97050505	     24.84077644	     -3.49700253	     66.25355567	     35.65113421	     83.59053499	     -1.72332994	     -0.04460504	     26.55007713	      1.63386013	     74.16830862	     27.60746594	     69.31349481	     -1.79472354	      4.23344867
      0.01666667	      0.38497699	     -5.39785377	     85.69432427	      0.18792541	      0.86348032	      0.66171296	      4.26668729	     -0.68552006	      0.49043379	      7.63022768	      0.13317260	     35.71113830	     12.11459811	      0.00000000	      7.04863197	      0.89136755	     12.85716738	     14.53446774	      0.25367432	     30.85104035	    -17.00265035	      0.00000000	      0.16595671	      0.34546919	      0.67555059	      0.30819821	      0.45947402	      0.71777250	      0.27265028	      0.83997379	      0.71777250	      0.18967193	      0.83997379	      0.59110676	      0.15410740	      0.70448077	      0.54888485	      0.09482767	      0.53513178	      0.50666294	      1.18541221	      3.90801657	      3.75720970	      0.00000000	      0.00000000	     26.30247133	     -1.59420646	     -3.26831916	     24.81472063	     -3.58717267	     66.44144078	     35.62586670	     82.20853759	     -2.00111751	      0.27919457	     26.68917509	      1.38882266	     74.35582796	     28.08030932	     68.58361342	      0.84345065	      7.20336214
      0.03333333	      0.18371259	     -5.33768459	     85.74360713	      0.18869804	      0.86376055	      0.66170932	      4.36179924	     -0.90088926	     -0.29744179	      7.74037925	      0.13509510	     36.11962878	     12.95118252	      0.00000000	      6.89635769	      1.10368810	     13.82953910	     14.49881740	      0.25305210	     30.27911206	    -17.48808209	      0.00000000	      0.16435204	      0.30652603	      0.62426392	      0.30521817	      0.40767962	      0.66328042	      0.27001397	      0.74528738	      0.66328042	      0.18783795	      0.74528738	      0.54623093	      0.15261730	      0.62506788	      0.50721444	      0.09391076	      0.47480882	      0.46819794	      1.17395019	      3.46748373	      3.47196866	      0.00000000	      0.00000000	     26.26470308	     -1.31952035	     -3.52541754	     25.33495418	     -3.64979961	     70.20557754	     35.29798968	     67.79346324	     -1.64916722	      0.81950165	     26.23984844	      1.10748620	     73.27127727	     28.77185035	     60.40697453	      1.41266512	     10.92609281
      0.05000000	     -0.04357240	     -5.27903354	     85.82370693	      0.18950502	      0.86390806	      0.66179449	      4.36690325	     -1.07506919	     -0.04845337	      7.72655270	      0.13485378	     36.30683721	     12.48977796	      0.00000000	      6.80732726	      1.29153395	     14.18505595	     14.42226676	      0.25171604	     29.87136109	    -17.55535791	      0.00000000	      0.16269049	      0.26227031	      0.59813227	      0.30213252	      0.34881952	      0.63551554	      0.26728421	      0.63768404	      0.63551554	      0.18593896	      0.63768404	      0.52336573	      0.15107439	      0.53482163	      0.48598247	      0.09296135	      0.40625672	      0.44859920	      1.16208192	      2.96685426	      3.32663224	      0.00000000	      0.00000000	     26.16250900	     -1.04394684	     -3.92742312	     25.35905608	     -3.69727956	     72.29882303	     35.29806890	     55.51509204	     -0.66198412	      2.21042665	     26.33093253	      0.86440945	     74.31790260	     29.22539267	     53.43407540	      1.08248150	     13.12459961
      0.06666667	     -0.33682403	     -5.30916386	     85.96027784	      0.19004443	      0.86380214	      0.66160862	      4.44460564	     -1.34338066	     -0.00681092	      7.78107875	      0.13580544	     36.44228975	     12.28023888	      0.00000000	      6.75139047	      1.53716085	     14.41804689	     14.12649139	      0.24655379	     29.67555096	    -17.41601052	      0.00000000	      0.17866289	      0.21190649	      0.55589186	      0.33179485	      0.28183563	      0.59063510	      0.29352526	      0.51522944	      0.59063510	      0.20419381	      0.51522944	      0.48640538	      0.16590636	      0.43211971	      0.45166214	      0.10208797	      0.32824315	      0.41691890	      1.27617113	      2.39712860	      3.09170376	      0.00000000	      0.00000000	     26.05732273	     -0.61461061	     -4.20495677	     24.87957048	     -3.62608356	     71.85710033	     35.30207110	     53.66272458	      0.36422585	      4.03215710	     26.23467673	      0.61542784	     74.18985360	     29.61283495	     52.68490174	      1.05674596	     14.33228823
      0.08333333	     -0.31127361	     -5.18061497	     85.97513166	      0.19054503	      0.86394199	      0.66185148	      4.25126789	     -1.21697367	      1.14067786	      7.62476922	      0.13307733	     36.23179070	     10.85185592	      0.00000000	      6.65014927	      1.47093872	     14.27957476	     14.06501157	      0.24548076	     29.56244204	    -17.41784392	      0.00000000	      0.15661366	      0.20683027	      0.53098714	      0.29084723	      0.27508426	      0.56417383	      0.25730059	      0.50288711	      0.56417383	      0.17899375	      0.50288711	      0.46461374	      0.14543145	      0.42176828	      0.43142705	      0.08948905	      0.32038009	      0.39824035	      1.11867573	      2.33970536	      2.95319115	      0.00000000	      0.00000000	     26.01054785	     -0.55205426	     -4.26764390	     24.92928024	     -3.76632485	     74.89535927	     35.78408374	     32.97712992	      0.55393885	      6.40074147	     26.30582883	      0.53158876	     75.12415276	     29.94743190	     46.24213826	     -0.47067492	     15.15413045
